<?xml version="1.0" encoding="utf-8"?>
<!-- Generator: Adobe Illustrator 19.0.0, SVG Export Plug-In . SVG Version: 6.00 Build 0)  -->
<svg version="1.1" id="Layer_1" xmlns="http://www.w3.org/2000/svg" xmlns:xlink="http://www.w3.org/1999/xlink" x="0px" y="0px"
	 viewBox="0 0 1400 980" style="enable-background:new 0 0 1400 980;" xml:space="preserve">
<style type="text/css">
	.st0{clip-path:url(#XMLID_240_);}
	.st1{fill:url(#XMLID_241_);}
	.st2{opacity:0.5;}
	.st3{fill:#FFFFFF;}
	.st4{fill:url(#XMLID_242_);}
	.st5{fill:#6D243D;}
	.st6{fill:url(#XMLID_243_);}
	.st7{fill:#BFD1DD;}
	.st8{fill:#A3B6C1;}
	.st9{fill:#DE4035;}
	.st10{fill:#AB2325;}
	.st11{fill:#5C788D;}
	.st12{fill:#455E6C;}
	.st13{fill:#FDC19F;}
	.st14{fill:url(#XMLID_258_);}
	.st15{fill:url(#XMLID_261_);}
	.st16{fill:#D8B09C;}
	.st17{fill:#B85952;}
	.st18{fill:#7C3436;}
	.st19{fill:#763131;}
	.st20{fill:url(#XMLID_262_);}
	.st21{fill:#FB9C7F;}
	.st22{fill:url(#XMLID_263_);}
	.st23{fill:url(#XMLID_264_);}
	.st24{fill:#866549;}
	.st25{fill:#FCAE16;}
	.st26{fill:#D3710F;}
	.st27{fill:#564134;}
	.st28{fill:#5D341A;}
	.st29{fill:#904216;}
	.st30{fill:#882908;}
	.st31{fill:#39130D;}
	.st32{fill:#B7754D;}
	.st33{fill:#EA8044;}
	.st34{fill:#E25C2D;}
	.st35{fill:#934235;}
</style>
<g id="XMLID_21_">
	<defs>
		<rect id="XMLID_20_" width="1400" height="980"/>
	</defs>
	<clipPath id="XMLID_240_">
		<use xlink:href="#XMLID_20_"  style="overflow:visible;"/>
	</clipPath>
	<g id="XMLID_10_" class="st0">
		<linearGradient id="XMLID_241_" gradientUnits="userSpaceOnUse" x1="700" y1="9.7711" x2="700" y2="978.8726">
			<stop  offset="0" style="stop-color:#DDC3C3"/>
			<stop  offset="0.5922" style="stop-color:#E9DAD1"/>
			<stop  offset="1" style="stop-color:#EFE5D8"/>
		</linearGradient>
		<rect id="XMLID_352_" class="st1" width="1400" height="980"/>
		<g id="XMLID_319_" class="st2">
			<g id="XMLID_398_">
				<g id="XMLID_409_">
					<polygon id="XMLID_410_" class="st3" points="0,170.5 0,180.5 1400,150.5 1400,143.4 					"/>
				</g>
				<g id="XMLID_407_">
					<polygon id="XMLID_408_" class="st3" points="0,216.7 1400,195.4 1400,155.6 0,209.3 					"/>
				</g>
				<g id="XMLID_405_">
					<polygon id="XMLID_406_" class="st3" points="1400,207.3 0,226.7 0,248.7 1400,235.2 					"/>
				</g>
				<g id="XMLID_403_">
					<polygon id="XMLID_404_" class="st3" points="1400,363.4 0,378.5 0,407 1400,407 					"/>
				</g>
				<g id="XMLID_401_">
					<rect id="XMLID_402_" y="438.2" class="st3" width="1400" height="541.8"/>
				</g>
				<g id="XMLID_399_">
					<polygon id="XMLID_400_" class="st3" points="1400,304.2 0,285.3 0,373.6 1400,344 					"/>
				</g>
			</g>
		</g>
		<g id="XMLID_82_">
			
				<linearGradient id="XMLID_242_" gradientUnits="userSpaceOnUse" x1="698.5797" y1="420.4097" x2="698.5797" y2="748.1494" gradientTransform="matrix(1 0 0 1 1.4203 0)">
				<stop  offset="0" style="stop-color:#B08498"/>
				<stop  offset="0.3581" style="stop-color:#B58C9B"/>
				<stop  offset="0.8983" style="stop-color:#C4A0A3"/>
				<stop  offset="1" style="stop-color:#C7A5A5"/>
			</linearGradient>
			<path id="XMLID_200_" class="st4" d="M1380.1,517.2v-81.5h-20.1v9.6h-6.7v-17.3l-7.7-7.7v34.5H1334v93h-12.5v-63.3H1311v17.5
				h-6.7v10.3h6.7v14.4h-14.4V475h-16.3v-8.6h-17.3v-24.9H1219v112.1h-49.8v-19.2h-15.3v-10.5h-6.7v-41.2h-28.8v44.1h-17.3v-16.3
				h-8.1v25.9h-11v8.6h11v24.4l-33.1-33.1v-47.9h-26.8v-25.1h3.1c0-7-5.7-12.7-12.7-12.7c-7,0-12.7,5.7-12.7,12.7h4.1v25.1h-4.8
				v48.9h-8.6c0-25.9-28.8-25.9-28.8-25.9v-49.8h8.6v-26.8h-31.6v25.9h10.5v51.8h-7.7v-45h-18.2v52.7h-8.6v-37.4h-19.2v34.5
				l-38.3-38.3v-40.3h-10.5v40.3h-43.1V500h-18.2v-11.5h-24.9v22h-6.7v-22h-10.1v23.5l-5.3,5.3h-18.9v-81.5h-20.1v9.6h-6.7v-17.3
				l-7.7-7.7v34.5h-11.5v2.9h-21.3v-23h-14.4v23h-6.1V475h-11.8v-8.6h-17.3v-24.9h-44.1v112.1h-49.8v-19.2h-15.3v-10.5h-6.7v-41.2
				h-28.8v44.1h-17.3v-16.3h-8.1v25.9h-11v8.6h11v24.4l-33.1-33.1v-47.9h-26.8v-25.1h3.1c0-7-5.7-12.7-12.7-12.7
				c-7,0-12.7,5.7-12.7,12.7h4.1v25.1h-4.8v48.9h-8.6c0-25.9-28.8-25.9-28.8-25.9v-49.8h8.6v-26.8h-31.6v25.9h10.5v51.8H303v-45
				h-18.2v52.7h-8.6v-37.4H257v34.5l-38.3-38.3v-40.3h-10.5v40.3H165V500h-18.2v-11.5h-24.9v22h-6.7v-22h-10.1v23.5l-30.2,30.2
				l-13.4-13.4v-8.6H50.9v-62.3H13.6v-23H-0.8v23h-8.6v290.4h652h117.2h649.6V517.2H1380.1z"/>
		</g>
		<rect id="XMLID_281_" y="741.8" class="st5" width="1400" height="238.2"/>
		<linearGradient id="XMLID_243_" gradientUnits="userSpaceOnUse" x1="0" y1="885.5" x2="1400" y2="885.5">
			<stop  offset="0" style="stop-color:#B08498"/>
			<stop  offset="0.3581" style="stop-color:#B58C9B"/>
			<stop  offset="0.8983" style="stop-color:#C4A0A3"/>
			<stop  offset="1" style="stop-color:#C7A5A5"/>
		</linearGradient>
		<rect id="XMLID_278_" y="791" class="st6" width="1400" height="189"/>
		<rect id="XMLID_275_" y="811" class="st3" width="1400" height="14.5"/>
		<path id="XMLID_259_" class="st5" d="M1321.1,697.7c0,31.8-9.3,57.6-9.3,57.6s-9.3-25.8-9.3-57.6c0-31.8,9.3-57.6,9.3-57.6
			S1321.1,665.9,1321.1,697.7z"/>
		<path id="XMLID_250_" class="st5" d="M1335.7,725.6c0,13.3-3.9,24-3.9,24s-3.9-10.7-3.9-24c0-13.3,3.9-24,3.9-24
			S1335.7,712.3,1335.7,725.6z"/>
		<path id="XMLID_247_" class="st5" d="M1235.5,725.6c0,13.3-3.9,24-3.9,24s-3.9-10.7-3.9-24c0-13.3,3.9-24,3.9-24
			S1235.5,712.3,1235.5,725.6z"/>
		<path id="XMLID_244_" class="st5" d="M1148.3,725.6c0,13.3-3.9,24-3.9,24s-3.9-10.7-3.9-24c0-13.3,3.9-24,3.9-24
			S1148.3,712.3,1148.3,725.6z"/>
		<g id="XMLID_2_">
			<path id="XMLID_306_" class="st7" d="M1250.7,292.6c0.2-4.8,1.3-9.4,1.3-14.2c-0.1-4.8-1.6-9.8-5.6-12.6
				c-4.3-3-10.4-2.2-14.8,0.6c-4.4,2.9-7.3,7.5-9.7,12.2c-3.4,6.7-5.8,14-5.7,21.6c0,3.7,0.7,7.3,0.9,11c0.4,5.5-0.1,11-1.4,16.3
				c-0.3,1.2-0.6,2.4-0.1,3.5c0.8,1.8,3.2,2,5.2,1.8c8.1-0.5,30.7-1.4,35.6-9.2C1260.7,316.8,1250.3,301.1,1250.7,292.6z"/>
			<g id="XMLID_213_">
				<path id="XMLID_215_" class="st3" d="M1256.5,323.6c4.2-6.8-6.1-22.4-5.7-31c0.2-4.8,1.3-9.4,1.3-14.2s-1.6-9.8-5.6-12.6
					c-0.7-0.5-1.5-0.9-2.2-1.2c1.6,2.4,2.4,5.7,2.6,8.7c0.4,5.1,0.2,10.3-0.7,15.4c-0.4,2.3-0.9,4.6-0.5,6.9
					c0.3,1.6,1.1,3.2,1.8,4.7c3.7,7.9,6.3,16.2,7.8,24.8C1255.7,324.6,1256.1,324.1,1256.5,323.6z"/>
			</g>
			<g id="XMLID_210_">
				<path id="XMLID_212_" class="st8" d="M1227.9,307.4c2.7-5.3,7.9-9.8,13.8-10.1c-4.4-0.1-8.7-0.2-13.1-0.3
					c2.1-4.8,5.6-8.8,7.8-13.5c2.2-4.7,3-10.7-0.1-14.8c-1-1.3-2.6-2.2-4.2-2.6c-0.2,0.1-0.3,0.2-0.5,0.3c-4.4,2.9-7.3,7.5-9.7,12.2
					c-3.4,6.7-5.8,14-5.7,21.6c0,3.7,0.7,7.3,0.9,11c0.4,5.5-0.1,11-1.4,16.3c-0.3,1.2-0.6,2.4-0.1,3.5c0.8,1.8,3.2,2,5.2,1.8
					c0.6,0,1.2-0.1,1.9-0.1c0.3-2.6,0.6-5.3,1-7.9C1224.4,318.9,1225.2,312.8,1227.9,307.4z"/>
			</g>
			<path id="XMLID_299_" class="st9" d="M715.1,657.3c-40.3,11.3-84.6,26.6-125.2,16.4c-5.5-1.4-11-2.8-15.7-6
				c-7.2-5-11.1-13.4-14.6-21.5c-11.8-27.5-22.5-57.4-32.2-85.7c43-34.5,91.8-61.8,143.6-80.7c30.5-11.1,62-19.2,93.4-27.3
				c20.4-5.3,40.8-10.5,61.2-15.8c16-4.1,29.3-7.9,45.7-6.4c9.9,0.9,19.8,3.7,29.7,2.5c22.2-2.7,44.1,13.5,66.2,16.8
				c8.2,1.2,16.5,2.1,24.6,4.1c17.6,4.4,33.3,14,48.8,23.5c27.2,16.7,64.5,5.7,95,15.4c9.6,33.1,9.2,67.6,8.7,102.1
				c-0.1,9.2-0.3,18.7-3.6,27.3c-3.3,8.6-10.5,16.3-19.7,17.6c-44,6-89.5-5.4-133.9-7c-16.7-0.6-33.3-0.3-50-0.1
				c-55.2,0.9-110.7,1.8-165.1,11.3C752.8,647.3,733.8,652.1,715.1,657.3z"/>
			<g id="XMLID_230_">
				<path id="XMLID_232_" class="st3" d="M807.3,441.5c-14.3,3.7-28.6,7.4-42.9,11.1c-31.4,8.1-62.9,16.2-93.4,27.3
					c-48.5,17.6-94.2,42.7-135.2,74.1c29-17,75.2-42.1,84.6-47C674.2,478.7,756.5,458.7,807.3,441.5z"/>
			</g>
			<g id="XMLID_229_">
				<path id="XMLID_231_" class="st3" d="M991.8,453.8c-8.1-2-16.4-2.9-24.6-4.1c-19.5-2.9-38.7-15.7-58.1-17
					c3.3,1.7,6.6,3.3,10,4.6c14.2,5.6,29.3,8.3,44,12.2c28.4,7.6,55.5,20,79.9,36.4c-6.3-0.5-12.8,1.6-17.5,5.9
					c24.8-7.1,51.1,1.9,76.8,2.6c10.5,0.3,21.2-0.8,31.9-2c-30.2-8.9-66.8,1.5-93.7-15C1025.1,467.9,1009.4,458.2,991.8,453.8z"/>
			</g>
			<g id="XMLID_201_">
				<path id="XMLID_205_" class="st7" d="M1129.2,554.8c-23.9,29.4-57.8,51.6-95.3,56.9c6.8-30.7,7-62.8,0.5-93.6
					c-5,15.3-16.1,28.5-30.2,36.2c-5.8-24.7-0.9-51.6,13.1-72.7c-11.1,5.9-17.1,18.5-19.9,30.8c-2.8,12.3-3.3,25.1-7.3,37.1
					c-4.5,13.1-13.2,24.6-24.6,32.4c-1.3-22.6-2.7-45.3-4-67.9c-1.3-21.7-2.5-43.9,1.1-65.2c-4-0.9-7.9-2.1-11.8-3.5
					c-5.8,18.9-8.7,39-11.4,58.7c-2.1,15-7.1,29.8-9.2,44.7c-18.7,0.9-41.3,5.4-60,6c-14.3,0.5-28.7-0.6-42.7-3.3
					c23.7-10.1,46.8-22.9,64-42.2c17.1-19.2,27.5-45.8,22.4-71c-0.3-1.7-0.7-3.5-1.2-5.2c-3.8-0.5-7.6-0.6-11.4-0.1
					c-9.9,1.2-19.8-1.5-29.7-2.5c-16.5-1.6-29.7,2.2-45.7,6.4c-20.4,5.3-40.8,10.5-61.2,15.8c-11.3,2.9-22.6,5.8-33.8,8.9
					c-6.8,14.1-11.2,29.6-13.6,45.1c-4.3,27.3-2.7,50.6-1.6,78.2c-17.9-25.9-30.3-55.5-36.4-86.4c-12.8,33.1,7.4,69.2,8.4,104.7
					c0.2,7.8-0.6,15.9-4.8,22.5c-5.1,8-14.3,12.2-23.1,15.8c-29,11.7-60.3,20.1-91.3,20.8c1.7,2.2,3.7,4.1,6,5.7
					c4.6,3.2,10.2,4.6,15.7,6c40.6,10.2,84.9-5.1,125.2-16.4c18.7-5.2,37.7-10.1,56.9-13.4c54.4-9.5,109.9-10.4,165.1-11.3
					c16.7-0.3,33.3-0.5,50,0.1c44.4,1.6,89.9,13,133.9,7c9.2-1.2,16.4-9,19.7-17.6c3.3-8.6,3.5-18.1,3.6-27.3
					c0.3-19.9,0.5-39.9-1.2-59.6C1138.8,542,1134.2,548.6,1129.2,554.8z"/>
			</g>
			<g id="XMLID_13_">
				<path id="XMLID_26_" class="st10" d="M594.8,647.2c-1.3-16.1-4.1-32.4-11.3-46.8s-19.1-27.1-34.4-32.5c-5.9-2.1-12.2-3-18.4-3.4
					c-0.7,0-1.3-0.1-2-0.1c9.4,27.2,19.6,55.6,30.9,81.8c3.5,8.1,7.4,16.5,14.6,21.5c4.1,2.8,9,4.3,13.9,5.5
					C595,667.3,595.5,656.5,594.8,647.2z"/>
				<path id="XMLID_28_" class="st9" d="M1118.4,581.1l-11,32c0,0,4.6,17.2,17.8,25.4c7.1-2.7,12.6-9.3,15.4-16.5
					c3.3-8.6,3.5-18.1,3.6-27.3c0.1-6.7,0.2-13.4,0.2-20.1C1135.9,578.1,1127.3,581.1,1118.4,581.1z"/>
			</g>
			<path id="XMLID_300_" class="st11" d="M1035.4,781c0.1-62.4,0.3-123.1,0.5-185.2c0-9.8-4.9-18.8-13-24.4c0,0-0.1-0.1-0.1-0.1
				c-23.6-16.7-54.5-19-83.3-16.5c-28.8,2.5-57.4,9.2-86.3,8.3c-17.8-0.6-35.5-4-53.4-4.5c-32.1-1-63.6,7.5-94.6,15.9
				c-8,64.1-10.2,127.7-0.6,191.5c1.4,9.4,15.5,11.1,24.7,13.4c79.1,20.1,161.1,37.9,241.8,25.7
				C993.8,801.6,1018.3,796.3,1035.4,781z"/>
			<g id="XMLID_196_">
				<path id="XMLID_199_" class="st3" d="M1035.8,595.8c0-9.8-4.9-18.8-13-24.4c0,0-0.1-0.1-0.1-0.1c-16.2-11.4-35.8-16.1-55.8-17.1
					c8.4,2.4,16.5,5.4,24.1,9.6c11.8,6.5,22.2,16.3,27.1,28.8c3.3,8.4,4,17.6,4.6,26.6c3.9,54.9,7.8,110,8.6,165
					c1.3-1,2.6-2.1,3.9-3.2C1035.5,718.6,1035.7,657.9,1035.8,595.8z"/>
			</g>
			<g id="XMLID_195_">
				<path id="XMLID_197_" class="st12" d="M751.6,701.4c-6.6-3.3-13.4-6.9-17.4-13c-3.5-5.2-4.4-11.7-4.9-18
					c-1.1-13.9-0.3-27.9,2.4-41.6c0.5-2.7,1.2-5.5,2.9-7.6c2.6-3.1,6.9-4.1,10.6-5.7c11.1-4.8,16.7-16.4,14.9-28.4
					c13.9-7.6,32.3-7.9,48.1-6.5c19,1.7,38.1,5.6,57.1,3.6c22.9-2.5,44.8-13.6,67.8-12.3c2.2,0.1,4.6,0.4,6.3,1.9
					c1.5,1.4,2.2,3.5,2.8,5.4c5.1,14.6,18.6,26,33.8,28.6c0.4-17,0.5-35.2-0.5-53c-12-1.3-24.2-1.1-36.1-0.1
					c-28.8,2.5-57.4,9.2-86.3,8.3c-17.8-0.6-35.5-4-53.4-4.5c-32.1-1-63.6,7.5-94.6,15.9c-8,64.1-10.2,127.7-0.6,191.5
					c1.4,9.4,15.5,11.1,24.7,13.4c79.1,20.1,161.1,37.9,241.8,25.7c13.5-2,27.6-4.7,40.4-9.8c-8.6-1.7-17.1-3.8-25.5-6
					C905.1,768.1,826.4,738.6,751.6,701.4z"/>
			</g>
			<path id="XMLID_298_" class="st13" d="M810.2,432c1.5,14.3,3.1,28.7,4.6,43c2.4,22.2,32.8,28,54.9,25c22.1-3,41.4-21,45.8-42.9
				c2.8-13.5-4.6-28.4-7.3-41.9c-0.2-1.1-0.5-2.2-1.4-2.9c-0.7-0.5-1.7-0.6-2.6-0.6C872.1,411.8,840.5,421.8,810.2,432z"/>
			<g id="XMLID_209_">
				<path id="XMLID_211_" class="st7" d="M879.9,476.2c11.3-15.8,22.6-31.8,31.5-49.1c-1.2-4.1-2.4-8.1-3.2-12
					c-0.2-1.1-0.5-2.2-1.4-2.9c-0.7-0.5-1.7-0.6-2.6-0.6c-32,0-63.7,10-94,20.2c1.5,14.3,3.1,28.7,4.6,43
					c2,18.5,23.4,25.6,43.2,25.7c0.7-0.5,1.4-1,2.1-1.5C868,492.9,874,484.5,879.9,476.2z"/>
			</g>
			<linearGradient id="XMLID_258_" gradientUnits="userSpaceOnUse" x1="914.5859" y1="367.5789" x2="944.9314" y2="367.5789">
				<stop  offset="0" style="stop-color:#FB9C7F"/>
				<stop  offset="1" style="stop-color:#FDC19F"/>
			</linearGradient>
			<path id="XMLID_221_" class="st14" d="M931.2,340.3c3.2-2.3,7.8-4,10.8-1.5c1.3,1,2,2.6,2.4,4.2c1.4,5.3-0.2,10.8-2.3,15.8
				s-4.8,9.8-6,15.2c-1.3,6-0.5,12.8-4.1,17.7c-3.4,4.6-9.7,6.3-15.4,5.9C913.3,376.2,911.7,354.2,931.2,340.3z"/>
			<linearGradient id="XMLID_261_" gradientUnits="userSpaceOnUse" x1="769.277" y1="377.028" x2="792.9493" y2="377.028">
				<stop  offset="0" style="stop-color:#FB9C7F"/>
				<stop  offset="1" style="stop-color:#FDC19F"/>
			</linearGradient>
			<path id="XMLID_222_" class="st15" d="M769.8,354.9c-1.4,6.1,0.5,12.4,3,18.1c2.5,5.7,5.7,11.2,6.8,17.3c0.4,2.4,0.6,4.8,1.8,6.9
				c2.2,3.9,7.1,5.4,11.6,5.7c-3.8-12.3-5-24.9-8.2-37.3C783.6,361,772.4,343.6,769.8,354.9z"/>
			<path id="XMLID_220_" class="st13" d="M923.8,293c3.2,24-2.3,49.2-3.5,73.3c-0.9,18.3,4.6,40.9-6.1,55.8
				c-8.6,12.1-17.5,24.1-26.5,35.9c-1.6,2.1-3.3,4.3-5.5,5.6c-2.3,1.4-5,1.9-7.6,2.2c-15.7,2.3-33.2,7.3-48.1,1.8
				c-3.4-1.3-5.9-4.1-8.2-6.9c-6.2-7.5-15-14.3-17.4-23.7c-3.3-12.5-7-24.4-12.6-36c-4-8.3-8-16.7-9.5-25.8c-0.8-4.5-0.9-9.1-1-13.6
				c-0.4-13.5-0.8-27-1.2-40.6c32.8-18.2,70.2-26.7,107.2-32.9c5.1-0.9,10.2-1.7,15.4-1.2C906.5,287.7,917.2,289.4,923.8,293z"/>
			<g id="XMLID_6_">
				<path id="XMLID_7_" class="st16" d="M896.1,425.7c-0.9-9.2-2.9-18.7-6.4-27.3c-25.5-0.1-53.6,2.7-78.5,8.3
					c-5.3,8.5-7,19.2-4.8,28.9c-2.2-3.3-6.3-6.8-8.3-10.1c-0.4-0.7-0.9-1.4-1.3-2.1c1.4,4.5,2.7,9.1,3.9,13.7
					c2.5,9.4,11.3,16.2,17.4,23.7c2.3,2.8,4.8,5.7,8.2,6.9c14.9,5.5,32.4,0.5,48.1-1.8c2.6-0.4,5.3-0.9,7.6-2.2
					c2.3-1.4,3.9-3.5,5.5-5.6c9-11.8,17.9-23.8,26.5-35.9c10.7-14.9,5.1-37.5,6.1-55.8c0.5-9.6,1.6-19.3,2.7-29.1
					c-1.7,10.8-3.4,21.6-5.1,32.4C914.6,389.7,909.3,410.2,896.1,425.7z"/>
			</g>
			<path id="XMLID_227_" class="st17" d="M908.8,326c0,0,6.8,32.8,6.3,41.6h0c3.5-0.8,6.6-2.8,8.8-5.6c5.8-7.3,16.2-22.3,13.8-33.5
				c-3.2-15.3-4.8-35.5-4.8-35.5L908.8,326z"/>
			<path id="XMLID_270_" class="st17" d="M781.1,323.7c0,0-4.5,28-3,47.3c0,0-10.2-38.5-6.8-57.1S781.1,323.7,781.1,323.7z"/>
			<path id="XMLID_283_" class="st18" d="M827.5,340.6c-0.7,2.7-0.8,5.6-0.5,8.4c-12.8-2.7-26.7-5.8-39.2-1.9
				c-0.2-2.7-0.4-4.7-0.6-7.4C799.9,336.2,814.8,343.4,827.5,340.6z"/>
			<path id="XMLID_284_" class="st18" d="M888.2,334.3c0.5,3.5,1.1,7.2,1.5,10.6c-13.6-0.1-27.3,1.7-40.5,5.2
				c-2.5-3.6-4.2-7.7-5.1-12.1C858,336.6,874.3,335.8,888.2,334.3z"/>
			
				<ellipse id="XMLID_286_" transform="matrix(1 -9.098132e-003 9.098132e-003 1 -3.2467 7.4499)" class="st19" cx="817.2" cy="360.6" rx="4.9" ry="10.5"/>
			
				<ellipse id="XMLID_288_" transform="matrix(1 -9.098132e-003 9.098132e-003 1 -3.2349 7.8921)" class="st19" cx="865.8" cy="359.5" rx="4.9" ry="10.5"/>
			<linearGradient id="XMLID_262_" gradientUnits="userSpaceOnUse" x1="834.5042" y1="408.5979" x2="848.1708" y2="366.5979">
				<stop  offset="0" style="stop-color:#EF625F"/>
				<stop  offset="1" style="stop-color:#FDC19F"/>
			</linearGradient>
			<path id="XMLID_287_" class="st20" d="M826.5,387.3c-0.8,1.6-1.7,3.2-2.1,5c-0.8,3.3,0.2,7.1,2.7,9.5c3.3,3.3,8.6,4,13.2,2.8
				c4.6-1.2,8.6-3.9,12.4-6.5c0.9-0.6,1.7-1.2,2.3-2.1c0.6-1,0.7-2.2,0.7-3.3c0.4-7.3,0.7-14.7-1.3-21.7c-2-7-6.7-13.6-13.6-16
				c-1.2-0.4-2.5-0.7-3.7-0.3c-3.9,1.2-3.5,12-4.3,15.5C831.3,376.1,829.2,381.9,826.5,387.3z"/>
			<path id="XMLID_289_" class="st21" d="M895.8,372c-5.1,2.6-10.3,5.2-15.4,7.8c-3.1,1.6-6.3,3.2-9.6,4.2
				c-8.4,2.5-12.2-4.6-4.1-8.6C874.8,371.5,887.1,371.6,895.8,372z"/>
			<path id="XMLID_294_" class="st21" d="M819,382.6c1,1.6,1,4-0.5,5.2c-2,1.6-4.8,0.3-7-0.9c-5.6-2.9-15.5-3.3-19.9-7.2
				C796.6,373.1,815,376.3,819,382.6z"/>
			<path id="XMLID_295_" class="st19" d="M882.6,406.3c-13.6,2.4-27,5.8-40,10.5c-8.3-2-17-2.5-25.5-1.7c2.6,4.2,5,8.5,9.3,11.1
				c5.1,3,11.5,2.8,17.4,2.2c4.8-0.5,9.6-1.2,14.4-2.1c2.8-0.5,5.6-1.1,8.2-2.4C872.8,420.8,879.1,412.6,882.6,406.3z"/>
			<path id="XMLID_297_" class="st13" d="M830.6,437.1c14.4,3.4,29.6,0.1,42.7-9.3C862.2,444.6,844.1,449.7,830.6,437.1z"/>
			<path id="XMLID_303_" class="st11" d="M755.9,452.6c-8.8,2.3-17.4,4-26.5,4.4c-3.2,45.4-1.5,91.1,4.9,136.1
				c1.1,7.9,8.1,13.6,16.1,13l0,0c8.8-0.6,15.2-8.5,14-17.2C757.6,540.2,753.8,499.4,755.9,452.6z"/>
			<path id="XMLID_304_" class="st11" d="M984,448.4c-12-1.1-25-2.7-36.1-7.4c0.9,51.6,3.7,103.2,8.3,154.7
				c0.6,6.2,5.2,11.2,11.3,12.3h0c8.7,1.6,16.6-5.3,16.2-14.1C981.8,545.3,982.6,497,984,448.4z"/>
			<linearGradient id="XMLID_263_" gradientUnits="userSpaceOnUse" x1="462.7051" y1="595.8125" x2="629.0092" y2="595.8125">
				<stop  offset="0" style="stop-color:#FB9C7F"/>
				<stop  offset="1" style="stop-color:#FDC19F"/>
			</linearGradient>
			<path id="XMLID_301_" class="st22" d="M569.6,545.4c-26.4,6.3-53,15.9-73,34.4c-13.5,12.5-23.4,28.5-30.3,45.6
				c-3.2,8.1-5.7,17.7-1.2,25.1c5.4,9,17.8,10.1,28.2,10.2c12,0.1,24.2,0.2,35.7-3.1c13.2-3.8,24.7-11.8,35.5-20.2
				c21.8-16.8,42.1-35.5,60.7-55.7c1.3-1.4,2.6-2.9,3.2-4.7c0.6-1.8,0.5-3.7,0.3-5.5c-0.7-9.8-2-36.9-14.5-40.3
				c-5.7-1.6-14.6,5.8-20.2,7.7C586.2,541.7,577.8,543.4,569.6,545.4z"/>
			<linearGradient id="XMLID_264_" gradientUnits="userSpaceOnUse" x1="1104.3328" y1="530.6374" x2="1243.4286" y2="530.6374">
				<stop  offset="0" style="stop-color:#FB9C7F"/>
				<stop  offset="1" style="stop-color:#FDC19F"/>
			</linearGradient>
			<path id="XMLID_302_" class="st23" d="M1243,463.7c-8.1,25.3-18.8,49.7-31.9,72.8c-11.3,19.8-24.5,38.9-41.9,53.5
				c-17.4,14.7-39,23.3-61.8,23.1c-4.6-26.9-3.9-54.5,1.2-81.3c3.2-16.9,13.1-31.9,27.1-41.9c8.8-6.2,17.8-12.2,26.9-18
				c10.7-6.8,21.9-13.6,29.4-23.8c5.5,0.1,12-0.2,17.4,0c5.9,0.1,11.8,0.3,17.5,1.8c5.7,1.5,11.2,4.4,14.6,9.2
				c0.3,0.4,0.5,0.7,1,0.9c0.4,0.1,1-0.2,0.9-0.6S1242.8,463.3,1243,463.7z"/>
			<path id="XMLID_308_" class="st7" d="M1179.6,444.5c-3.4,16.3,7.9,33,22.9,40.1s32.6,6.3,48.8,2.6c6.9-1.6,14.1-3.9,18.3-9.5
				c1.9-2.5,3.1-5.5,4.2-8.4c4.8-13.3,7.4-27.4,7.8-41.6c0.1-2.9,0-5.9-1.5-8.4c-1.4-2.3-4-3.7-6.4-4.9
				C1242.8,399.7,1187.9,404.4,1179.6,444.5z"/>
			<g id="XMLID_202_">
				<path id="XMLID_203_" class="st8" d="M1269.7,477.7c1.9-2.5,3.1-5.5,4.2-8.4c4.8-13.3,7.4-27.4,7.8-41.6c0.1-2.9,0-5.9-1.5-8.4
					c-1.4-2.3-4-3.7-6.4-4.9c-21.4-10.2-54.4-11.1-75.3,2.6c-0.3,5.8-0.6,11.7-0.9,17.5c-0.2,3.5-0.3,7.2,0.9,10.5
					c2,5.5,7.2,9,12.2,11.9c8.4,4.8,17.3,8.7,26.2,12.6c9.9,4.3,19.9,8.7,30.6,10.2c0.1,0,0.2,0,0.3,0
					C1268.4,479.2,1269.1,478.5,1269.7,477.7z"/>
			</g>
			<path id="XMLID_307_" class="st7" d="M1188.2,366.2c-0.7,8.5,0.4,17,0.2,25.5c-0.1,6.3-1,12.6-0.4,18.9
				c0.8,7.5,3.6,14.7,6.7,21.6c1.3,2.8,2.6,5.8,5.2,7.8c2.8,2.2,6.6,2.9,10.3,3.4c17.9,2.2,36.5-0.4,53-7.3c2.3-1,4.7-2.1,6-4.2
				c1.6-2.5,1.1-5.6,0.6-8.4c-1.6-9.5-3.3-19-5.1-28.5c-1.9-10.2-3.8-20.5-8.6-29.9c-2.5-5-6-9.8-11-12.8c-3.8-2.2-8.3-3.3-12.7-4.1
				c-8.8-1.7-23.1-6.1-32.2-3.7C1191.1,347,1188.9,358.5,1188.2,366.2z"/>
			<path id="XMLID_305_" class="st7" d="M1276.1,449.3c-7,5.1-16,7.3-24.6,6.1c-5.9-0.8-11.5-3.2-17.3-4.7c-5.7-1.5-11.7-2-17.6-2.3
				c-6.2-0.3-13.3-0.8-16.9-5.7c-4.1-5.5,0-12.6,3.6-18.5c-5.3-6.9-3.8-17.6,1.5-24.4c-4-2.1-6.8-6.3-7.2-10.8
				c-0.5-6.3,3.3-13.6,7-18.7c-7.4-1.7-13.1-8.9-13.2-16.5c0-3.3,0.9-6.5,2.2-9.5c1.4-3.3,3.2-6.6,6-8.9c2.6-2.2,5.9-3.3,9.1-4.4
				c15.4-5.4,30.8-10.7,46.2-16.1c8.3-2.9,17.3,5.4,20.5,13.6c3.1,8.2,2.9,17.3,5,25.8c1.2,5,3.2,9.7,4.3,14.7
				c1.3,6,1.3,12.2,1.2,18.3C1285.7,408.6,1293.4,436.8,1276.1,449.3z"/>
			<path id="XMLID_310_" class="st8" d="M704.7,543.6c5,5.7,8.9,12.2,12.4,18.9c1.9,3.5,3.6,7.1,5,10.8c2.5,6.9,3.4,14.3,2.7,21.6
				c-6.5,0.1-12.9-0.1-19.4-0.5c-2.1-0.1-4.4-0.4-5.7-2.1c-0.9-1.2-1-2.8-1.1-4.3c-0.5-12.4-1.7-24.9-3.6-37.2
				c-0.4-2.7-4-13.9-1.2-15.3C697,534,703,541.6,704.7,543.6z"/>
			<g id="XMLID_218_">
				<path id="XMLID_224_" class="st3" d="M717.1,562.5c-3.5-6.7-7.4-13.3-12.4-18.9c-1.7-2-7.7-9.6-10.8-8c-0.6,0.3-0.9,1-1,2
					c2.6,2.9,5.3,5.9,7.8,8.9c9.6,11.5,17.7,24.2,23.9,37.8c-0.5-3.7-1.3-7.4-2.6-11C720.8,569.6,719,566,717.1,562.5z"/>
			</g>
			<path id="XMLID_313_" class="st24" d="M702.5,581.3c-0.8-0.2-1.8-0.3-2.4,0.3l0.9,24.5c4.4,1.6,8.9,3.1,13.3,4.7
				c2,0.7,4,1.5,6,2.3c7.8,3.1,16.5-1.6,18.1-9.9c0-0.1,0-0.2,0.1-0.3c1.3-6.9-3-13.7-9.9-15.5C720,585.3,711.3,583.2,702.5,581.3z"
				/>
			<path id="XMLID_309_" class="st7" d="M632.4,517.4c-5.4-1.9-11.5-0.9-16.6,1.8c-5.1,2.7-9.2,6.9-12.7,11.3
				c-3.6,4.5-6.8,9.4-8.1,15c-1.5,6.2-0.6,12.6,0.3,18.9c2,14,4.1,28.3,11.3,40.5c0.7,1.2,1.5,2.4,2.6,3.3
				c4.2,3.3,10.3,0.3,14.8-2.8c0.4,3.1,0.9,5.3,2.2,8.1c1.4,2.8,3.8,5.2,6.9,5.7c2.9,0.5,5.8-0.9,8.5-2.2c2,3.7,6.2,5,10.3,5.9
				c4.1,0.8,8.6-0.2,11.9-2.9c1.7,4.7,6.8,8.7,11.6,9.8c4.8,1.1,10.2-0.3,13.8-3.8c3.4,2.9,7.7,6.5,12.1,6.8c4.5,0.3,9.2-1.9,11-6
				c1.3-2.9,1-6.2,0.6-9.4c-1.7-15.3-3.5-30.7-5.2-46c-1-9.1-2.1-18.4-5.3-27c-1.7-4.5-4-8.9-7.5-12.2c-7.8-7.5-19.5-8.7-30.3-9
				C654,522.9,642.6,521.1,632.4,517.4z"/>
			<path id="XMLID_311_" class="st8" d="M790.3,667.5c-7,3.3-15.2,4.2-22.7,2.4c-2.8-0.7-5.5-1.7-7.8-3.4c-5.5-3.9-7.9-10.8-9-17.5
				c-1.1-6.6-1.1-13.5-3.1-19.9c-2.9-9.4-10.2-18.1-19.3-22c-2.3-1-3.5-3.5-2.7-5.9c0-0.1,0.1-0.2,0.1-0.3c0.8-2.5,3.5-3.9,6-3.1
				c9.2,2.8,18.4,6.8,22.6,15.2c4.4,8.8,1.6,19.7,5.1,28.9c3.4,9.1,13.2,15.3,22.9,14.6C785.1,660.3,787.5,663.6,790.3,667.5z"/>
			<path id="XMLID_312_" class="st7" d="M772.8,679.4c-3.8-3.4-3.9-9.5-1.7-14.1s6.4-7.8,10.4-11c38.6-30,79.7-56.7,122.8-79.7
				c2.2,2.2-0.4,5.2-1.9,8c-11.2,20.6-23.3,40.7-36.3,60.2c-7.3,10.9-15.2,22-26.5,28.8c-11,6.6-24,8.4-36.7,10.1
				C793.5,683.1,780.1,685.8,772.8,679.4z"/>
			<g id="XMLID_194_">
				<path id="XMLID_198_" class="st7" d="M892.6,346c15.8-6.2,30.1-15.3,43.6-25.6c-2.2-13.5-3.3-27.3-3.3-27.3l-8.3,11.4
					c-0.1-3.8-0.4-7.6-0.9-11.4c-6.6-3.6-17.3-5.3-24.7-6.1c-5.1-0.5-10.3,0.3-15.4,1.2c-35.7,6-71.8,14.1-103.7,31
					c-2-7.2-6.2-19.1-8.7-5.3c-1.8,9.8,0.2,25.2,2.5,37.5c-1.8-0.5-3.2,0.3-4,3.6c-0.8,3.3-0.6,6.7,0.2,10c23.5-1.5,47-3.8,70.4-7
					C858.1,355.4,875.9,352.5,892.6,346z"/>
			</g>
			<path id="XMLID_22_" class="st25" d="M952.3,320.1c-1.2-2.9-7.4-8.5-7.7-11.5c-2.6-22.1-6.3-44.8-17.9-63.7
				c-11.6-19-33.1-35-55.2-32.4c-1-1.8-2-2.8-3-4.6c-16.4-2.3-33.9-1.8-49.7,3.1c-1.1,1.8-1.9,4.4-3,6.1
				c-20.7,4.7-37.2,21.8-45.2,41.4s-8.8,41.6-6.5,62.8c0.5,5-3.7,9.1-5.6,13.8c45.7,10.5,95.1,16.6,139.3,1.1
				C914.2,330.4,934.9,319.4,952.3,320.1z"/>
			<g id="XMLID_4_">
				<path id="XMLID_5_" class="st26" d="M861.6,276c0,0,0-50.2,10-63.6c-1-1.8-2-2.8-3-4.6C868.5,207.8,855.6,234.2,861.6,276z"/>
				<path id="XMLID_15_" class="st26" d="M907.4,314.2c-20.6,8.2-74.6,20.8-90.2,4.5c-17.6-18.3-1.4-101.7-1.4-101.7
					c-20.7,4.7-37.2,21.8-45.2,41.4s-8.8,41.6-6.5,62.8c0.2,1.8-0.2,3.4-0.9,5.1C838.3,343,907.4,314.2,907.4,314.2z"/>
			</g>
			<g id="XMLID_19_">
				<path id="XMLID_27_" class="st3" d="M842.5,416.9c-6.6-1.6-13.5-2.2-20.3-2c1,2.6,2.1,5.2,3.2,7.8c9.3,2.5,19.1,1.5,28.6-0.4
					c7.8-1.6,15.3-4.2,22.6-7.4l0.2-7.4C865.2,409.8,853.7,412.8,842.5,416.9z"/>
			</g>
			<g id="XMLID_204_">
				<path id="XMLID_206_" class="st8" d="M1211.7,428.9c18.7,1.2,37.6-0.4,55.8-4.7c-19.5,1.3-39.1,1.1-58.6-0.6
					c1.1-7.2,2.2-14.3,3.4-21.5c16.7-1.4,33.2-4.8,49.1-10.1c-12,1.6-24,3.2-36.1,4.8c-5.2,0.7-11.3,1.2-15.1-2.5
					c-3.3-3.2-3.6-8.3-3.7-12.9c-0.1-3.2,0-6.7,1.9-9.3c1.7-2.3,4.6-3.4,7.4-4.4c15.4-5.4,30.9-10.9,46.3-16.3
					c-17.1,4.6-34.4,8-51.9,10.3c-1.9,0.2-4,0.5-5.7-0.4c-1.8-0.8-2.9-2.5-3.8-4.2c-3.1-5.7-4.4-12.3-3.9-18.8
					c-1.3,1.8-2.4,3.9-3.3,6c-1.2,3-2.2,6.2-2.2,9.5c0,7.6,5.8,14.8,13.2,16.5c-3.7,5.1-7.5,12.4-7,18.7c0.4,4.5,3.2,8.7,7.2,10.8
					c-5.3,6.9-6.7,17.6-1.5,24.4c-3.5,5.9-7.6,12.9-3.6,18.5c2.5,3.4,6.7,4.7,11,5.3c-0.6-1.3-1.2-2.7-1.6-4.1
					C1207.6,438.8,1208.1,432.8,1211.7,428.9z"/>
			</g>
			<g id="XMLID_207_">
				<path id="XMLID_208_" class="st8" d="M625.2,574.2c-1.6,3.4-2.7,6.9-3.3,10.6c-6.9-21.9,0.2-47.5,17.4-62.7
					c-11.1,3.3-18.9,13.6-22.4,24.6c-3.5,11-3.4,22.8-3.2,34.4c-4.2-9.5-5.4-20.3-3.3-30.5c-7.3,18.8-1.6,39.6,5.3,58.8
					c2.6-0.6,5.3-2,7.6-3.6C622.8,595.2,623.4,584.6,625.2,574.2z"/>
			</g>
			<g id="XMLID_214_">
				<path id="XMLID_217_" class="st3" d="M1285.8,387.2c0-6.1,0.1-12.3-1.2-18.3c-1.1-5-3.1-9.8-4.3-14.7c-2.1-8.5-1.8-17.6-5-25.8
					s-12.2-16.4-20.5-13.6c-15.4,5.4-30.8,10.7-46.2,16.1c-3.2,1.1-6.5,2.3-9.1,4.4c-0.8,0.7-1.6,1.4-2.2,2.3
					c12.3-5.5,25.6-9,38.7-12.5c10.4-2.8,23.3-4.8,30.3,3.3c2.9,3.4,4.1,7.9,5.2,12.3c1.8,7.4,3.7,14.7,5.5,22.1
					c1.1,4.3,2.1,8.6,2.6,12.9c0.7,7.2-0.3,14.4-0.2,21.5c0.2,9,2.1,17.9,2.2,26.9c0.1,9-1.9,18.6-8.4,24.9c-2.7,2.6-6,4.5-9.6,5.9
					c4.5-1,8.8-2.9,12.5-5.6C1293.4,436.8,1285.7,408.6,1285.8,387.2z"/>
			</g>
			<g id="XMLID_216_">
				<path id="XMLID_219_" class="st3" d="M713.1,617.3c-1.7-15.3-3.5-30.7-5.2-46c-1-9.1-2.1-18.4-5.3-27c-1.7-4.5-4-8.9-7.5-12.2
					c-7.8-7.5-19.5-8.7-30.3-9c-10.8-0.2-22.2-2.1-32.4-5.7c-5.4-1.9-11.5-0.9-16.6,1.8c-4.4,2.4-8.2,5.9-11.4,9.7
					c0.8-0.7,1.7-1.4,2.6-2c5.8-3.9,13.3-5.3,20.2-3.8c-9.1,4.3-14,15.8-10.9,25.3c2.5-6.5,6.1-12.6,10.6-18
					c1.7-2.1,3.7-4.2,6.2-5.2c5.4-2.2,11.3,1.1,16.9,2.7c11.1,3.3,23.4,0.6,34.4,4.3c9.5,3.2,13.1,11.6,15.7,21.3
					c1.9,7,9.5,49,10.9,62.9c0.4,3.9,0.6,7.9,0.5,11.8c0.4-0.5,0.7-1,0.9-1.6C713.8,623.8,713.4,620.5,713.1,617.3z"/>
			</g>
			<g id="XMLID_223_">
				<path id="XMLID_226_" class="st3" d="M984,448.4c-12-1.1-25-2.7-36.1-7.4c0,1,0,1.9,0.1,2.9c6.3,3.9,14.4,5.8,21.8,7.8
					c2,0.5,4.1,1.2,5.2,2.9c0.8,1.3,0.9,3,0.9,4.6c0,43.4,0,86.8-0.1,130.2c0,3.1,0,6.4-1.5,9.2c-1.5,2.9-4.2,4.9-7.1,6.3
					c-1.3,0.6-2.6,1.1-3.9,1.6c1.3,0.7,2.7,1.2,4.2,1.5h0c8.7,1.6,16.6-5.3,16.2-14.1C981.8,545.3,982.6,497,984,448.4z"/>
			</g>
			<g id="XMLID_225_">
				<path id="XMLID_228_" class="st3" d="M748.6,459.3c2.6,18.9,5.2,37.7,7.9,56.6c-1.3-20.7-1.6-41.4-0.6-63.3
					c-8.8,2.3-17.4,4-26.5,4.4c-0.1,0.7-0.1,1.4-0.1,2.1C735.6,460.3,742.2,460.4,748.6,459.3z"/>
			</g>
			<path id="XMLID_233_" class="st3" d="M887.9,224.3c-1.2-0.7-2.4-1-3.7-0.7c-0.6,0.2-1.2,0.5-1.8,0.8c-2.5,1.2-2.5,5.5,0,6.7
				c0.6,0.3,1.2,0.6,1.8,0.8c1.1,0.2,2.2,0.1,3.3-0.4c0.2-0.1,0.3-0.2,0.4-0.3C890.5,229.6,890.5,225.8,887.9,224.3z"/>
			<path id="XMLID_234_" class="st3" d="M931.9,285.8c-1.9-10.8-4.7-22-10.4-31.4c-2.1-3.5-4.4-6.8-7.4-9.6c-1.6-1.5-3.4-3-5.3-4.1
				c-0.9-0.5-3.7-1.1-4.3-1.9c-1.1-1.5-3.7-0.7-3.2,1.3c1.9,6.8,7,11.9,9.8,18.3c3.8,8.8,7.8,19.5,6.8,29.3
				C916.9,297.2,933.8,296.8,931.9,285.8z"/>
			<path id="XMLID_237_" class="st3" d="M822,361.3c-0.1-0.4-0.3-0.7-0.7-0.9c-0.5-0.2-0.9-0.2-1.3-0.1c-0.6-0.2-1.4,0-1.6,0.6
				c0,0,0,0.1-0.1,0.1c-0.5,0.9,0.1,2.1,1.2,2.1c0.2,0,0.4,0,0.5-0.1c0.4,0.2,0.8,0.2,1.3-0.1C821.9,362.6,822.1,361.9,822,361.3z"
				/>
			<path id="XMLID_236_" class="st3" d="M870.6,355.9c-1.1-0.5-2.2,0-2.8,0.9c0,0,0,0,0,0.1c-0.4,0.6-0.4,1.6,0,2.2c0,0,0,0,0,0.1
				c0.6,0.8,1.5,1.3,2.5,1c0.9-0.3,1.7-1.2,1.7-2.2C872,357.1,871.5,356.3,870.6,355.9z"/>
			<path id="XMLID_235_" class="st3" d="M826.9,392.3c-1.4,0.4-1.6,2.4-0.7,3.4c0.5,0.5,1.3,0.3,1.6-0.2c0.2-0.3,0.2-0.6,0.3-0.9
				c0-0.1,0-0.2,0.1-0.3c0,0,0.2-0.3,0.2-0.4C828.7,392.9,827.8,392.1,826.9,392.3z"/>
			<path id="XMLID_238_" class="st3" d="M834.5,373.5c-1.4,1.6-1.7,4.2-2.4,6.1c-0.8,2.2-2,5.3-1.9,7.6c0,0.3,0.5,0.4,0.6,0.1
				c0.2-1,0.9-1.9,1.3-2.8c0.6-1.4,1.1-2.9,1.6-4.3c0.7-2.1,0.6-4.4,1.4-6.4C835.2,373.5,834.7,373.2,834.5,373.5z"/>
		</g>
		<g id="XMLID_3_">
			<path id="XMLID_318_" class="st27" d="M1339.8,953.3c-11.1-3.6-25.8-0.1-32.2-10.2c-3.3-5.2-2.6-12-3.3-18.2
				c-1.6-14.4-12.3-27.3-25.8-31.1c-5.8-1.6-12.6-2-16.4-6.8c-2.7-3.4-3.2-8.1-4.6-12.2c-9.3-26.8-50.5-20.1-69.3-40.9
				c-11.2-12.4-13.5-33.8-28.7-40c-7.5-3-17.6-2.1-21.7-9.3c-2.4-4.1-39-9.3-38.9-14.1c0.4-11.2-3.9-21.1-7.9-31.5
				c-5-13-17.3-18-30.8-18H-31v298.3l1394.4-8.7C1363.8,988.2,1360.3,959.9,1339.8,953.3z"/>
			<g id="XMLID_32_">
				<g id="XMLID_1_">
					<g id="XMLID_8_">
						<path id="XMLID_17_" class="st28" d="M106.7,778.9H-4c-7.9,0-14.4-6.4-14.4-14.4v-15c0-7.9,6.4-14.4,14.4-14.4h110.8
							c7.9,0,14.4,6.4,14.4,14.4v15C121.1,772.5,114.7,778.9,106.7,778.9z"/>
					</g>
					<g id="XMLID_9_">
						<path id="XMLID_11_" class="st29" d="M264.2,778.9H153.4c-7.9,0-14.4-6.4-14.4-14.4v-15c0-7.9,6.4-14.4,14.4-14.4h110.8
							c7.9,0,14.4,6.4,14.4,14.4v15C278.6,772.5,272.1,778.9,264.2,778.9z"/>
					</g>
					<g id="XMLID_12_">
						<path id="XMLID_14_" class="st30" d="M421.6,778.9H310.9c-7.9,0-14.4-6.4-14.4-14.4v-15c0-7.9,6.4-14.4,14.4-14.4h110.8
							c7.9,0,14.4,6.4,14.4,14.4v15C436,772.5,429.6,778.9,421.6,778.9z"/>
					</g>
					<g id="XMLID_16_">
						<path id="XMLID_18_" class="st31" d="M579.1,778.9H468.3c-7.9,0-14.4-6.4-14.4-14.4v-15c0-7.9,6.4-14.4,14.4-14.4h110.8
							c7.9,0,14.4,6.4,14.4,14.4v15C593.4,772.5,587,778.9,579.1,778.9z"/>
					</g>
					<g id="XMLID_23_">
						<path id="XMLID_24_" class="st30" d="M736.5,778.9H625.7c-7.9,0-14.4-6.4-14.4-14.4v-15c0-7.9,6.4-14.4,14.4-14.4h110.8
							c7.9,0,14.4,6.4,14.4,14.4v15C750.9,772.5,744.4,778.9,736.5,778.9z"/>
					</g>
					<g id="XMLID_25_">
						<path id="XMLID_29_" class="st29" d="M893.9,778.9H783.2c-7.9,0-14.4-6.4-14.4-14.4v-15c0-7.9,6.4-14.4,14.4-14.4h110.8
							c7.9,0,14.4,6.4,14.4,14.4v15C908.3,772.5,901.9,778.9,893.9,778.9z"/>
					</g>
					<g id="XMLID_30_">
						<path id="XMLID_31_" class="st29" d="M1051.4,778.9H940.6c-7.9,0-14.4-6.4-14.4-14.4v-15c0-7.9,6.4-14.4,14.4-14.4h110.8
							c7.9,0,14.4,6.4,14.4,14.4v15C1065.7,772.5,1059.3,778.9,1051.4,778.9z"/>
					</g>
				</g>
				<g id="XMLID_35_">
					<g id="XMLID_50_">
						<path id="XMLID_51_" class="st29" d="M33,830.8H-77.8c-7.9,0-14.4-6.4-14.4-14.4v-15c0-7.9,6.4-14.4,14.4-14.4H33
							c7.9,0,14.4,6.4,14.4,14.4v15C47.3,824.4,40.9,830.8,33,830.8z"/>
					</g>
					<g id="XMLID_48_">
						<path id="XMLID_49_" class="st30" d="M190.4,830.8H79.6c-7.9,0-14.4-6.4-14.4-14.4v-15c0-7.9,6.4-14.4,14.4-14.4h110.8
							c7.9,0,14.4,6.4,14.4,14.4v15C204.8,824.4,198.3,830.8,190.4,830.8z"/>
					</g>
					<g id="XMLID_46_">
						<path id="XMLID_47_" class="st29" d="M347.8,830.8H237.1c-7.9,0-14.4-6.4-14.4-14.4v-15c0-7.9,6.4-14.4,14.4-14.4h110.8
							c7.9,0,14.4,6.4,14.4,14.4v15C362.2,824.4,355.8,830.8,347.8,830.8z"/>
					</g>
					<g id="XMLID_44_">
						<path id="XMLID_45_" class="st30" d="M505.3,830.8H394.5c-7.9,0-14.4-6.4-14.4-14.4v-15c0-7.9,6.4-14.4,14.4-14.4h110.8
							c7.9,0,14.4,6.4,14.4,14.4v15C519.6,824.4,513.2,830.8,505.3,830.8z"/>
					</g>
					<g id="XMLID_42_">
						<path id="XMLID_43_" class="st29" d="M662.7,830.8H551.9c-7.9,0-14.4-6.4-14.4-14.4v-15c0-7.9,6.4-14.4,14.4-14.4h110.8
							c7.9,0,14.4,6.4,14.4,14.4v15C677.1,824.4,670.6,830.8,662.7,830.8z"/>
					</g>
					<g id="XMLID_40_">
						<path id="XMLID_41_" class="st29" d="M820.1,830.8H709.4c-7.9,0-14.4-6.4-14.4-14.4v-15c0-7.9,6.4-14.4,14.4-14.4h110.8
							c7.9,0,14.4,6.4,14.4,14.4v15C834.5,824.4,828.1,830.8,820.1,830.8z"/>
					</g>
					<g id="XMLID_38_">
						<path id="XMLID_39_" class="st30" d="M977.6,830.8H866.8c-7.9,0-14.4-6.4-14.4-14.4v-15c0-7.9,6.4-14.4,14.4-14.4h110.8
							c7.9,0,14.4,6.4,14.4,14.4v15C991.9,824.4,985.5,830.8,977.6,830.8z"/>
					</g>
					<g id="XMLID_36_">
						<path id="XMLID_37_" class="st29" d="M1135,830.8h-110.8c-7.9,0-14.4-6.4-14.4-14.4v-15c0-7.9,6.4-14.4,14.4-14.4H1135
							c7.9,0,14.4,6.4,14.4,14.4v15C1149.4,824.4,1142.9,830.8,1135,830.8z"/>
					</g>
				</g>
				<g id="XMLID_67_">
					<g id="XMLID_80_">
						<path id="XMLID_81_" class="st30" d="M106.7,885.4H-4c-7.9,0-14.4-6.4-14.4-14.4v-15c0-7.9,6.4-14.4,14.4-14.4h110.8
							c7.9,0,14.4,6.4,14.4,14.4v15C121.1,878.9,114.7,885.4,106.7,885.4z"/>
					</g>
					<g id="XMLID_78_">
						<path id="XMLID_79_" class="st30" d="M264.2,885.4H153.4c-7.9,0-14.4-6.4-14.4-14.4v-15c0-7.9,6.4-14.4,14.4-14.4h110.8
							c7.9,0,14.4,6.4,14.4,14.4v15C278.6,878.9,272.1,885.4,264.2,885.4z"/>
					</g>
					<g id="XMLID_76_">
						<path id="XMLID_77_" class="st31" d="M421.6,885.4H310.9c-7.9,0-14.4-6.4-14.4-14.4v-15c0-7.9,6.4-14.4,14.4-14.4h110.8
							c7.9,0,14.4,6.4,14.4,14.4v15C436,878.9,429.6,885.4,421.6,885.4z"/>
					</g>
					<g id="XMLID_74_">
						<path id="XMLID_75_" class="st28" d="M579.1,885.4H468.3c-7.9,0-14.4-6.4-14.4-14.4v-15c0-7.9,6.4-14.4,14.4-14.4h110.8
							c7.9,0,14.4,6.4,14.4,14.4v15C593.4,878.9,587,885.4,579.1,885.4z"/>
					</g>
					<g id="XMLID_72_">
						<path id="XMLID_73_" class="st30" d="M736.5,885.4H625.7c-7.9,0-14.4-6.4-14.4-14.4v-15c0-7.9,6.4-14.4,14.4-14.4h110.8
							c7.9,0,14.4,6.4,14.4,14.4v15C750.9,878.9,744.4,885.4,736.5,885.4z"/>
					</g>
					<g id="XMLID_70_">
						<path id="XMLID_71_" class="st31" d="M893.9,885.4H783.2c-7.9,0-14.4-6.4-14.4-14.4v-15c0-7.9,6.4-14.4,14.4-14.4h110.8
							c7.9,0,14.4,6.4,14.4,14.4v15C908.3,878.9,901.9,885.4,893.9,885.4z"/>
					</g>
					<g id="XMLID_68_">
						<path id="XMLID_69_" class="st30" d="M1051.4,885.4H940.6c-7.9,0-14.4-6.4-14.4-14.4v-15c0-7.9,6.4-14.4,14.4-14.4h110.8
							c7.9,0,14.4,6.4,14.4,14.4v15C1065.7,878.9,1059.3,885.4,1051.4,885.4z"/>
					</g>
					<g id="XMLID_114_">
						<path id="XMLID_115_" class="st30" d="M1204.7,885.4H1094c-7.9,0-14.4-6.4-14.4-14.4v-15c0-7.9,6.4-14.4,14.4-14.4h110.8
							c7.9,0,14.4,6.4,14.4,14.4v15C1219.1,878.9,1212.7,885.4,1204.7,885.4z"/>
					</g>
				</g>
				<g id="XMLID_33_">
					<g id="XMLID_65_">
						<path id="XMLID_66_" class="st29" d="M33,937.3H-77.8c-7.9,0-14.4-6.4-14.4-14.4v-15c0-7.9,6.4-14.4,14.4-14.4H33
							c7.9,0,14.4,6.4,14.4,14.4v15C47.3,930.9,40.9,937.3,33,937.3z"/>
					</g>
					<g id="XMLID_63_">
						<path id="XMLID_64_" class="st30" d="M190.4,937.3H79.6c-7.9,0-14.4-6.4-14.4-14.4v-15c0-7.9,6.4-14.4,14.4-14.4h110.8
							c7.9,0,14.4,6.4,14.4,14.4v15C204.8,930.9,198.3,937.3,190.4,937.3z"/>
					</g>
					<g id="XMLID_61_">
						<path id="XMLID_62_" class="st28" d="M347.8,937.3H237.1c-7.9,0-14.4-6.4-14.4-14.4v-15c0-7.9,6.4-14.4,14.4-14.4h110.8
							c7.9,0,14.4,6.4,14.4,14.4v15C362.2,930.9,355.8,937.3,347.8,937.3z"/>
					</g>
					<g id="XMLID_59_">
						<path id="XMLID_60_" class="st29" d="M505.3,937.3H394.5c-7.9,0-14.4-6.4-14.4-14.4v-15c0-7.9,6.4-14.4,14.4-14.4h110.8
							c7.9,0,14.4,6.4,14.4,14.4v15C519.6,930.9,513.2,937.3,505.3,937.3z"/>
					</g>
					<g id="XMLID_57_">
						<path id="XMLID_58_" class="st30" d="M662.7,937.3H551.9c-7.9,0-14.4-6.4-14.4-14.4v-15c0-7.9,6.4-14.4,14.4-14.4h110.8
							c7.9,0,14.4,6.4,14.4,14.4v15C677.1,930.9,670.6,937.3,662.7,937.3z"/>
					</g>
					<g id="XMLID_55_">
						<path id="XMLID_56_" class="st29" d="M820.1,937.3H709.4c-7.9,0-14.4-6.4-14.4-14.4v-15c0-7.9,6.4-14.4,14.4-14.4h110.8
							c7.9,0,14.4,6.4,14.4,14.4v15C834.5,930.9,828.1,937.3,820.1,937.3z"/>
					</g>
					<g id="XMLID_53_">
						<path id="XMLID_54_" class="st28" d="M977.6,937.3H866.8c-7.9,0-14.4-6.4-14.4-14.4v-15c0-7.9,6.4-14.4,14.4-14.4h110.8
							c7.9,0,14.4,6.4,14.4,14.4v15C991.9,930.9,985.5,937.3,977.6,937.3z"/>
					</g>
					<g id="XMLID_34_">
						<path id="XMLID_52_" class="st30" d="M1135,937.3h-110.8c-7.9,0-14.4-6.4-14.4-14.4v-15c0-7.9,6.4-14.4,14.4-14.4H1135
							c7.9,0,14.4,6.4,14.4,14.4v15C1149.4,930.9,1142.9,937.3,1135,937.3z"/>
					</g>
					<g id="XMLID_116_">
						<path id="XMLID_117_" class="st29" d="M1285.7,937.3H1175c-7.9,0-14.4-6.4-14.4-14.4v-15c0-7.9,6.4-14.4,14.4-14.4h110.8
							c7.9,0,14.4,6.4,14.4,14.4v15C1300.1,930.9,1293.6,937.3,1285.7,937.3z"/>
					</g>
				</g>
				<g id="XMLID_99_">
					<g id="XMLID_112_">
						<path id="XMLID_113_" class="st31" d="M106.7,991.9H-4c-7.9,0-14.4-6.4-14.4-14.4v-15c0-7.9,6.4-14.4,14.4-14.4h110.8
							c7.9,0,14.4,6.4,14.4,14.4v15C121.1,985.4,114.7,991.9,106.7,991.9z"/>
					</g>
					<g id="XMLID_110_">
						<path id="XMLID_111_" class="st30" d="M264.2,991.9H153.4c-7.9,0-14.4-6.4-14.4-14.4v-15c0-7.9,6.4-14.4,14.4-14.4h110.8
							c7.9,0,14.4,6.4,14.4,14.4v15C278.6,985.4,272.1,991.9,264.2,991.9z"/>
					</g>
					<g id="XMLID_108_">
						<path id="XMLID_109_" class="st29" d="M421.6,991.9H310.9c-7.9,0-14.4-6.4-14.4-14.4v-15c0-7.9,6.4-14.4,14.4-14.4h110.8
							c7.9,0,14.4,6.4,14.4,14.4v15C436,985.4,429.6,991.9,421.6,991.9z"/>
					</g>
					<g id="XMLID_106_">
						<path id="XMLID_107_" class="st31" d="M579.1,991.9H468.3c-7.9,0-14.4-6.4-14.4-14.4v-15c0-7.9,6.4-14.4,14.4-14.4h110.8
							c7.9,0,14.4,6.4,14.4,14.4v15C593.4,985.4,587,991.9,579.1,991.9z"/>
					</g>
					<g id="XMLID_104_">
						<path id="XMLID_105_" class="st30" d="M736.5,991.9H625.7c-7.9,0-14.4-6.4-14.4-14.4v-15c0-7.9,6.4-14.4,14.4-14.4h110.8
							c7.9,0,14.4,6.4,14.4,14.4v15C750.9,985.4,744.4,991.9,736.5,991.9z"/>
					</g>
					<g id="XMLID_102_">
						<path id="XMLID_103_" class="st31" d="M893.9,991.9H783.2c-7.9,0-14.4-6.4-14.4-14.4v-15c0-7.9,6.4-14.4,14.4-14.4h110.8
							c7.9,0,14.4,6.4,14.4,14.4v15C908.3,985.4,901.9,991.9,893.9,991.9z"/>
					</g>
					<g id="XMLID_100_">
						<path id="XMLID_101_" class="st29" d="M1051.4,991.9H940.6c-7.9,0-14.4-6.4-14.4-14.4v-15c0-7.9,6.4-14.4,14.4-14.4h110.8
							c7.9,0,14.4,6.4,14.4,14.4v15C1065.7,985.4,1059.3,991.9,1051.4,991.9z"/>
					</g>
					<g id="XMLID_118_">
						<path id="XMLID_119_" class="st31" d="M1204.7,991.9H1094c-7.9,0-14.4-6.4-14.4-14.4v-15c0-7.9,6.4-14.4,14.4-14.4h110.8
							c7.9,0,14.4,6.4,14.4,14.4v15C1219.1,985.4,1212.7,991.9,1204.7,991.9z"/>
					</g>
					<g id="XMLID_120_">
						<path id="XMLID_121_" class="st29" d="M1358.1,991.9h-110.8c-7.9,0-14.4-6.4-14.4-14.4v-15c0-7.9,6.4-14.4,14.4-14.4h110.8
							c7.9,0,14.4,6.4,14.4,14.4v15C1372.5,985.4,1366.1,991.9,1358.1,991.9z"/>
					</g>
				</g>
			</g>
			<g id="XMLID_83_">
				<g id="XMLID_179_">
					<g id="XMLID_192_">
						<path id="XMLID_193_" class="st32" d="M111.4,773.2H0.7c-7.9,0-14.4-6.4-14.4-14.4v-15c0-7.9,6.4-14.4,14.4-14.4h110.8
							c7.9,0,14.4,6.4,14.4,14.4v15C125.8,766.8,119.4,773.2,111.4,773.2z"/>
					</g>
					<g id="XMLID_190_">
						<path id="XMLID_191_" class="st33" d="M268.9,773.2H158.1c-7.9,0-14.4-6.4-14.4-14.4v-15c0-7.9,6.4-14.4,14.4-14.4h110.8
							c7.9,0,14.4,6.4,14.4,14.4v15C283.2,766.8,276.8,773.2,268.9,773.2z"/>
					</g>
					<g id="XMLID_188_">
						<path id="XMLID_189_" class="st34" d="M426.3,773.2H315.5c-7.9,0-14.4-6.4-14.4-14.4v-15c0-7.9,6.4-14.4,14.4-14.4h110.8
							c7.9,0,14.4,6.4,14.4,14.4v15C440.7,766.8,434.2,773.2,426.3,773.2z"/>
					</g>
					<g id="XMLID_186_">
						<path id="XMLID_187_" class="st35" d="M583.7,773.2H473c-7.9,0-14.4-6.4-14.4-14.4v-15c0-7.9,6.4-14.4,14.4-14.4h110.8
							c7.9,0,14.4,6.4,14.4,14.4v15C598.1,766.8,591.7,773.2,583.7,773.2z"/>
					</g>
					<g id="XMLID_184_">
						<path id="XMLID_185_" class="st34" d="M741.2,773.2H630.4c-7.9,0-14.4-6.4-14.4-14.4v-15c0-7.9,6.4-14.4,14.4-14.4h110.8
							c7.9,0,14.4,6.4,14.4,14.4v15C755.5,766.8,749.1,773.2,741.2,773.2z"/>
					</g>
					<g id="XMLID_182_">
						<path id="XMLID_183_" class="st33" d="M898.6,773.2H787.8c-7.9,0-14.4-6.4-14.4-14.4v-15c0-7.9,6.4-14.4,14.4-14.4h110.8
							c7.9,0,14.4,6.4,14.4,14.4v15C913,766.8,906.5,773.2,898.6,773.2z"/>
					</g>
					<g id="XMLID_180_">
						<path id="XMLID_181_" class="st33" d="M1056,773.2H945.3c-7.9,0-14.4-6.4-14.4-14.4v-15c0-7.9,6.4-14.4,14.4-14.4H1056
							c7.9,0,14.4,6.4,14.4,14.4v15C1070.4,766.8,1064,773.2,1056,773.2z"/>
					</g>
				</g>
				<g id="XMLID_162_">
					<g id="XMLID_177_">
						<path id="XMLID_178_" class="st33" d="M37.6,825.1H-73.1c-7.9,0-14.4-6.4-14.4-14.4v-15c0-7.9,6.4-14.4,14.4-14.4H37.6
							c7.9,0,14.4,6.4,14.4,14.4v15C52,818.7,45.6,825.1,37.6,825.1z"/>
					</g>
					<g id="XMLID_175_">
						<path id="XMLID_176_" class="st34" d="M195.1,825.1H84.3c-7.9,0-14.4-6.4-14.4-14.4v-15c0-7.9,6.4-14.4,14.4-14.4h110.8
							c7.9,0,14.4,6.4,14.4,14.4v15C209.4,818.7,203,825.1,195.1,825.1z"/>
					</g>
					<g id="XMLID_173_">
						<path id="XMLID_174_" class="st33" d="M352.5,825.1H241.7c-7.9,0-14.4-6.4-14.4-14.4v-15c0-7.9,6.4-14.4,14.4-14.4h110.8
							c7.9,0,14.4,6.4,14.4,14.4v15C366.9,818.7,360.4,825.1,352.5,825.1z"/>
					</g>
					<g id="XMLID_171_">
						<path id="XMLID_172_" class="st34" d="M509.9,825.1H399.2c-7.9,0-14.4-6.4-14.4-14.4v-15c0-7.9,6.4-14.4,14.4-14.4h110.8
							c7.9,0,14.4,6.4,14.4,14.4v15C524.3,818.7,517.9,825.1,509.9,825.1z"/>
					</g>
					<g id="XMLID_169_">
						<path id="XMLID_170_" class="st33" d="M667.4,825.1H556.6c-7.9,0-14.4-6.4-14.4-14.4v-15c0-7.9,6.4-14.4,14.4-14.4h110.8
							c7.9,0,14.4,6.4,14.4,14.4v15C681.7,818.7,675.3,825.1,667.4,825.1z"/>
					</g>
					<g id="XMLID_167_">
						<path id="XMLID_168_" class="st33" d="M824.8,825.1H714c-7.9,0-14.4-6.4-14.4-14.4v-15c0-7.9,6.4-14.4,14.4-14.4h110.8
							c7.9,0,14.4,6.4,14.4,14.4v15C839.2,818.7,832.7,825.1,824.8,825.1z"/>
					</g>
					<g id="XMLID_165_">
						<path id="XMLID_166_" class="st34" d="M982.2,825.1H871.5c-7.9,0-14.4-6.4-14.4-14.4v-15c0-7.9,6.4-14.4,14.4-14.4h110.8
							c7.9,0,14.4,6.4,14.4,14.4v15C996.6,818.7,990.2,825.1,982.2,825.1z"/>
					</g>
					<g id="XMLID_163_">
						<path id="XMLID_164_" class="st33" d="M1139.7,825.1h-110.8c-7.9,0-14.4-6.4-14.4-14.4v-15c0-7.9,6.4-14.4,14.4-14.4h110.8
							c7.9,0,14.4,6.4,14.4,14.4v15C1154,818.7,1147.6,825.1,1139.7,825.1z"/>
					</g>
				</g>
				<g id="XMLID_145_">
					<g id="XMLID_160_">
						<path id="XMLID_161_" class="st34" d="M111.4,879.7H0.7c-7.9,0-14.4-6.4-14.4-14.4v-15c0-7.9,6.4-14.4,14.4-14.4h110.8
							c7.9,0,14.4,6.4,14.4,14.4v15C125.8,873.3,119.4,879.7,111.4,879.7z"/>
					</g>
					<g id="XMLID_158_">
						<path id="XMLID_159_" class="st34" d="M268.9,879.7H158.1c-7.9,0-14.4-6.4-14.4-14.4v-15c0-7.9,6.4-14.4,14.4-14.4h110.8
							c7.9,0,14.4,6.4,14.4,14.4v15C283.2,873.3,276.8,879.7,268.9,879.7z"/>
					</g>
					<g id="XMLID_156_">
						<path id="XMLID_157_" class="st35" d="M426.3,879.7H315.5c-7.9,0-14.4-6.4-14.4-14.4v-15c0-7.9,6.4-14.4,14.4-14.4h110.8
							c7.9,0,14.4,6.4,14.4,14.4v15C440.7,873.3,434.2,879.7,426.3,879.7z"/>
					</g>
					<g id="XMLID_154_">
						<path id="XMLID_155_" class="st32" d="M583.7,879.7H473c-7.9,0-14.4-6.4-14.4-14.4v-15c0-7.9,6.4-14.4,14.4-14.4h110.8
							c7.9,0,14.4,6.4,14.4,14.4v15C598.1,873.3,591.7,879.7,583.7,879.7z"/>
					</g>
					<g id="XMLID_152_">
						<path id="XMLID_153_" class="st34" d="M741.2,879.7H630.4c-7.9,0-14.4-6.4-14.4-14.4v-15c0-7.9,6.4-14.4,14.4-14.4h110.8
							c7.9,0,14.4,6.4,14.4,14.4v15C755.5,873.3,749.1,879.7,741.2,879.7z"/>
					</g>
					<g id="XMLID_150_">
						<path id="XMLID_151_" class="st35" d="M898.6,879.7H787.8c-7.9,0-14.4-6.4-14.4-14.4v-15c0-7.9,6.4-14.4,14.4-14.4h110.8
							c7.9,0,14.4,6.4,14.4,14.4v15C913,873.3,906.5,879.7,898.6,879.7z"/>
					</g>
					<g id="XMLID_148_">
						<path id="XMLID_149_" class="st34" d="M1056,879.7H945.3c-7.9,0-14.4-6.4-14.4-14.4v-15c0-7.9,6.4-14.4,14.4-14.4H1056
							c7.9,0,14.4,6.4,14.4,14.4v15C1070.4,873.3,1064,879.7,1056,879.7z"/>
					</g>
					<g id="XMLID_146_">
						<path id="XMLID_147_" class="st34" d="M1209.4,879.7h-110.8c-7.9,0-14.4-6.4-14.4-14.4v-15c0-7.9,6.4-14.4,14.4-14.4h110.8
							c7.9,0,14.4,6.4,14.4,14.4v15C1223.8,873.3,1217.3,879.7,1209.4,879.7z"/>
					</g>
				</g>
				<g id="XMLID_126_">
					<g id="XMLID_143_">
						<path id="XMLID_144_" class="st33" d="M37.6,931.6H-73.1c-7.9,0-14.4-6.4-14.4-14.4v-15c0-7.9,6.4-14.4,14.4-14.4H37.6
							c7.9,0,14.4,6.4,14.4,14.4v15C52,925.2,45.6,931.6,37.6,931.6z"/>
					</g>
					<g id="XMLID_141_">
						<path id="XMLID_142_" class="st34" d="M195.1,931.6H84.3c-7.9,0-14.4-6.4-14.4-14.4v-15c0-7.9,6.4-14.4,14.4-14.4h110.8
							c7.9,0,14.4,6.4,14.4,14.4v15C209.4,925.2,203,931.6,195.1,931.6z"/>
					</g>
					<g id="XMLID_139_">
						<path id="XMLID_140_" class="st32" d="M352.5,931.6H241.7c-7.9,0-14.4-6.4-14.4-14.4v-15c0-7.9,6.4-14.4,14.4-14.4h110.8
							c7.9,0,14.4,6.4,14.4,14.4v15C366.9,925.2,360.4,931.6,352.5,931.6z"/>
					</g>
					<g id="XMLID_137_">
						<path id="XMLID_138_" class="st33" d="M509.9,931.6H399.2c-7.9,0-14.4-6.4-14.4-14.4v-15c0-7.9,6.4-14.4,14.4-14.4h110.8
							c7.9,0,14.4,6.4,14.4,14.4v15C524.3,925.2,517.9,931.6,509.9,931.6z"/>
					</g>
					<g id="XMLID_135_">
						<path id="XMLID_136_" class="st34" d="M667.4,931.6H556.6c-7.9,0-14.4-6.4-14.4-14.4v-15c0-7.9,6.4-14.4,14.4-14.4h110.8
							c7.9,0,14.4,6.4,14.4,14.4v15C681.7,925.2,675.3,931.6,667.4,931.6z"/>
					</g>
					<g id="XMLID_133_">
						<path id="XMLID_134_" class="st33" d="M824.8,931.6H714c-7.9,0-14.4-6.4-14.4-14.4v-15c0-7.9,6.4-14.4,14.4-14.4h110.8
							c7.9,0,14.4,6.4,14.4,14.4v15C839.2,925.2,832.7,931.6,824.8,931.6z"/>
					</g>
					<g id="XMLID_131_">
						<path id="XMLID_132_" class="st32" d="M982.2,931.6H871.5c-7.9,0-14.4-6.4-14.4-14.4v-15c0-7.9,6.4-14.4,14.4-14.4h110.8
							c7.9,0,14.4,6.4,14.4,14.4v15C996.6,925.2,990.2,931.6,982.2,931.6z"/>
					</g>
					<g id="XMLID_129_">
						<path id="XMLID_130_" class="st34" d="M1139.7,931.6h-110.8c-7.9,0-14.4-6.4-14.4-14.4v-15c0-7.9,6.4-14.4,14.4-14.4h110.8
							c7.9,0,14.4,6.4,14.4,14.4v15C1154,925.2,1147.6,931.6,1139.7,931.6z"/>
					</g>
					<g id="XMLID_127_">
						<path id="XMLID_128_" class="st33" d="M1290.4,931.6h-110.8c-7.9,0-14.4-6.4-14.4-14.4v-15c0-7.9,6.4-14.4,14.4-14.4h110.8
							c7.9,0,14.4,6.4,14.4,14.4v15C1304.7,925.2,1298.3,931.6,1290.4,931.6z"/>
					</g>
				</g>
				<g id="XMLID_84_">
					<g id="XMLID_124_">
						<path id="XMLID_125_" class="st35" d="M111.4,986.2H0.7c-7.9,0-14.4-6.4-14.4-14.4v-15c0-7.9,6.4-14.4,14.4-14.4h110.8
							c7.9,0,14.4,6.4,14.4,14.4v15C125.8,979.8,119.4,986.2,111.4,986.2z"/>
					</g>
					<g id="XMLID_122_">
						<path id="XMLID_123_" class="st34" d="M268.9,986.2H158.1c-7.9,0-14.4-6.4-14.4-14.4v-15c0-7.9,6.4-14.4,14.4-14.4h110.8
							c7.9,0,14.4,6.4,14.4,14.4v15C283.2,979.8,276.8,986.2,268.9,986.2z"/>
					</g>
					<g id="XMLID_97_">
						<path id="XMLID_98_" class="st33" d="M426.3,986.2H315.5c-7.9,0-14.4-6.4-14.4-14.4v-15c0-7.9,6.4-14.4,14.4-14.4h110.8
							c7.9,0,14.4,6.4,14.4,14.4v15C440.7,979.8,434.2,986.2,426.3,986.2z"/>
					</g>
					<g id="XMLID_95_">
						<path id="XMLID_96_" class="st35" d="M583.7,986.2H473c-7.9,0-14.4-6.4-14.4-14.4v-15c0-7.9,6.4-14.4,14.4-14.4h110.8
							c7.9,0,14.4,6.4,14.4,14.4v15C598.1,979.8,591.7,986.2,583.7,986.2z"/>
					</g>
					<g id="XMLID_93_">
						<path id="XMLID_94_" class="st34" d="M741.2,986.2H630.4c-7.9,0-14.4-6.4-14.4-14.4v-15c0-7.9,6.4-14.4,14.4-14.4h110.8
							c7.9,0,14.4,6.4,14.4,14.4v15C755.5,979.8,749.1,986.2,741.2,986.2z"/>
					</g>
					<g id="XMLID_91_">
						<path id="XMLID_92_" class="st35" d="M898.6,986.2H787.8c-7.9,0-14.4-6.4-14.4-14.4v-15c0-7.9,6.4-14.4,14.4-14.4h110.8
							c7.9,0,14.4,6.4,14.4,14.4v15C913,979.8,906.5,986.2,898.6,986.2z"/>
					</g>
					<g id="XMLID_89_">
						<path id="XMLID_90_" class="st33" d="M1056,986.2H945.3c-7.9,0-14.4-6.4-14.4-14.4v-15c0-7.9,6.4-14.4,14.4-14.4H1056
							c7.9,0,14.4,6.4,14.4,14.4v15C1070.4,979.8,1064,986.2,1056,986.2z"/>
					</g>
					<g id="XMLID_87_">
						<path id="XMLID_88_" class="st35" d="M1209.4,986.2h-110.8c-7.9,0-14.4-6.4-14.4-14.4v-15c0-7.9,6.4-14.4,14.4-14.4h110.8
							c7.9,0,14.4,6.4,14.4,14.4v15C1223.8,979.8,1217.3,986.2,1209.4,986.2z"/>
					</g>
					<g id="XMLID_85_">
						<path id="XMLID_86_" class="st33" d="M1362.8,986.2H1252c-7.9,0-14.4-6.4-14.4-14.4v-15c0-7.9,6.4-14.4,14.4-14.4h110.8
							c7.9,0,14.4,6.4,14.4,14.4v15C1377.2,979.8,1370.7,986.2,1362.8,986.2z"/>
					</g>
				</g>
			</g>
		</g>
	</g>
</g>
</svg>
